<svg id="svg" version="1.1" xmlns="http://www.w3.org/2000/svg" xmlns:xlink="http://www.w3.org/1999/xlink" width="400" height="400" viewBox="0, 0, 400,400"><g id="svgg"><path id="path0" d="M54.816 44.066 C 54.332 46.780,53.669 50.440,53.344 52.200 C 52.446 57.058,51.996 59.581,51.598 62.000 C 51.399 63.210,50.860 66.270,50.400 68.800 C 49.940 71.330,49.032 76.460,48.382 80.200 C 46.917 88.630,44.828 100.399,44.372 102.800 C 43.872 105.435,43.092 110.476,43.043 111.400 C 43.001 112.177,43.252 112.200,51.776 112.200 L 60.553 112.200 61.084 109.400 C 61.674 106.292,63.233 97.410,64.403 90.490 C 64.822 88.009,65.274 85.804,65.406 85.590 C 65.547 85.362,68.426 85.199,72.324 85.198 C 75.996 85.197,79.630 85.038,80.400 84.846 C 81.170 84.654,82.880 84.271,84.200 83.994 C 107.113 79.193,109.196 46.593,87.000 40.176 C 84.981 39.592,82.309 39.455,70.149 39.307 L 55.697 39.132 54.816 44.066 M144.340 40.100 C 143.774 41.143,141.087 46.615,137.907 53.200 C 136.685 55.730,134.201 60.860,132.386 64.600 C 130.571 68.340,128.148 73.380,127.001 75.800 C 124.506 81.064,120.886 88.561,115.606 99.400 C 110.757 109.353,109.600 111.807,109.600 112.139 C 109.600 112.282,113.554 112.400,118.386 112.400 L 127.172 112.400 129.464 107.722 C 132.769 100.976,131.267 101.600,144.210 101.600 L 155.220 101.600 155.571 102.524 C 155.764 103.032,156.126 105.147,156.374 107.224 C 156.623 109.301,156.922 111.315,157.040 111.700 C 157.234 112.335,174.800 112.883,174.800 112.254 C 174.800 112.174,174.432 109.429,173.982 106.154 C 173.533 102.879,173.000 98.850,172.798 97.200 C 172.597 95.550,172.245 92.805,172.016 91.100 C 171.787 89.395,171.426 86.695,171.213 85.100 C 171.000 83.505,170.626 80.760,170.383 79.000 C 169.754 74.456,169.260 70.692,168.810 67.000 C 168.595 65.240,168.227 62.540,167.991 61.000 C 167.756 59.460,167.218 55.500,166.795 52.200 C 165.335 40.805,165.212 39.942,164.983 39.572 C 164.403 38.634,144.864 39.134,144.340 40.100 M208.224 40.069 C 207.898 41.535,206.824 47.388,205.999 52.200 C 205.584 54.620,204.866 58.670,204.404 61.200 C 203.942 63.730,203.401 66.790,203.203 68.000 C 203.005 69.210,202.477 72.270,202.031 74.800 C 199.465 89.346,198.738 93.449,197.987 97.600 C 196.765 104.358,195.602 111.328,195.601 111.900 C 195.600 112.285,197.617 112.400,204.357 112.400 L 213.113 112.400 213.391 111.300 C 213.543 110.695,214.021 108.130,214.452 105.600 C 214.883 103.070,215.415 100.010,215.634 98.800 C 215.852 97.590,216.429 94.274,216.916 91.431 C 217.667 87.041,218.800 84.119,218.800 86.572 C 218.800 86.923,218.975 87.523,219.189 87.905 C 219.649 88.728,222.800 95.622,222.800 95.807 C 222.800 95.877,223.984 98.514,225.431 101.667 C 226.878 104.820,228.413 108.210,228.841 109.200 C 229.269 110.190,229.770 111.270,229.953 111.600 C 230.318 112.256,249.200 112.748,249.200 112.101 C 249.200 111.929,248.679 110.711,248.042 109.394 C 247.406 108.077,244.968 102.770,242.625 97.600 C 240.283 92.430,238.014 87.508,237.583 86.662 C 236.467 84.470,236.581 84.088,238.500 83.586 C 257.597 78.587,261.454 50.437,244.200 41.992 C 239.312 39.600,238.305 39.473,222.715 39.298 L 208.431 39.138 208.224 40.069 M281.044 39.529 C 280.853 39.839,280.434 42.070,279.606 47.200 C 279.411 48.410,278.802 51.830,278.253 54.800 C 277.704 57.770,276.509 64.520,275.598 69.800 C 274.687 75.080,273.775 80.165,273.570 81.099 C 273.365 82.034,273.027 83.924,272.820 85.299 C 272.612 86.675,272.065 89.960,271.604 92.600 C 270.812 97.131,270.609 98.267,269.580 103.900 C 269.068 106.706,268.455 110.318,268.309 111.400 C 268.203 112.176,268.461 112.203,277.025 112.307 L 285.850 112.415 286.354 109.707 C 286.631 108.218,287.040 106.010,287.264 104.800 C 287.488 103.590,287.821 101.790,288.005 100.800 C 288.189 99.810,288.527 97.920,288.757 96.600 C 291.766 79.311,291.236 80.539,293.711 85.110 C 294.750 87.029,296.247 89.770,297.037 91.200 C 297.827 92.630,299.207 95.150,300.105 96.800 C 301.002 98.450,302.094 100.430,302.532 101.200 C 302.971 101.970,304.053 103.950,304.939 105.600 C 305.825 107.250,307.023 109.410,307.602 110.400 L 308.655 112.200 318.328 112.307 C 328.135 112.416,328.895 112.308,327.641 110.980 C 327.322 110.642,326.229 108.705,321.895 100.800 C 321.232 99.590,320.237 97.790,319.685 96.800 C 319.133 95.810,317.966 93.650,317.091 92.000 C 316.217 90.350,315.370 88.820,315.209 88.600 C 314.938 88.230,314.266 87.010,310.810 80.619 C 310.102 79.310,308.846 77.044,308.019 75.585 L 306.515 72.932 323.058 56.284 C 332.156 47.127,339.600 39.537,339.600 39.418 C 339.600 39.298,335.293 39.200,330.029 39.200 L 320.458 39.200 307.656 52.093 C 300.614 59.185,294.736 64.869,294.592 64.725 C 294.448 64.581,294.804 61.794,295.383 58.532 C 295.962 55.269,296.804 50.530,297.255 48.000 C 297.705 45.470,298.170 42.455,298.286 41.300 L 298.499 39.200 289.873 39.200 C 285.129 39.200,281.156 39.348,281.044 39.529 M80.904 55.604 C 83.319 56.748,84.400 58.596,84.400 61.582 C 84.400 67.318,81.142 69.600,72.952 69.600 C 68.045 69.600,67.745 69.463,68.348 67.498 C 68.566 66.784,68.953 64.940,69.207 63.400 C 70.125 57.829,70.557 55.791,70.924 55.300 C 71.583 54.418,78.871 54.640,80.904 55.604 M233.440 55.562 C 239.126 58.144,237.975 67.243,231.726 69.115 C 229.837 69.681,221.354 69.773,221.019 69.231 C 220.810 68.893,221.494 64.650,222.423 60.523 C 222.630 59.600,222.800 58.394,222.800 57.842 C 222.800 54.697,228.735 53.426,233.440 55.562 M151.663 67.632 C 151.807 69.484,152.138 72.800,152.398 75.000 C 153.802 86.885,154.497 85.586,146.724 85.594 C 139.659 85.601,139.900 85.893,142.546 80.539 C 146.083 73.384,149.607 66.033,150.019 64.951 C 150.738 63.058,151.389 64.118,151.663 67.632 M195.671 155.700 C 195.433 156.635,194.869 159.560,194.418 162.200 C 193.966 164.840,192.796 171.500,191.818 177.000 C 190.839 182.500,189.677 189.070,189.235 191.600 C 188.399 196.387,187.412 201.967,186.795 205.400 C 186.597 206.500,186.059 209.560,185.600 212.200 C 185.141 214.840,184.601 217.900,184.400 219.000 C 184.199 220.100,183.659 223.160,183.199 225.800 C 182.739 228.440,182.191 231.500,181.981 232.600 C 181.001 237.737,180.667 239.922,180.635 241.400 L 180.600 243.000 290.300 243.101 L 400.000 243.201 400.000 198.601 L 400.000 154.000 298.052 154.000 L 196.104 154.000 195.671 155.700 M55.802 162.500 C 55.576 163.154,54.181 170.908,50.028 194.600 C 48.691 202.225,47.892 206.755,46.978 211.900 C 46.636 213.825,45.989 217.470,45.540 220.000 C 45.091 222.530,44.568 225.410,44.378 226.400 C 44.188 227.390,43.846 229.412,43.619 230.892 C 43.391 232.373,43.183 233.723,43.155 233.892 C 42.944 235.195,43.020 235.200,62.584 235.200 L 81.968 235.200 82.362 233.700 C 82.579 232.875,82.964 230.760,83.217 229.000 C 83.471 227.240,83.824 225.260,84.003 224.600 C 84.181 223.940,84.430 222.545,84.556 221.500 L 84.785 219.600 74.380 219.600 C 66.070 219.600,63.934 219.492,63.770 219.066 C 63.573 218.553,64.869 210.280,65.535 207.800 L 65.857 206.600 75.880 206.493 L 85.903 206.386 86.175 205.093 C 86.325 204.382,86.606 202.900,86.801 201.800 C 86.995 200.700,87.431 198.270,87.770 196.400 C 88.108 194.530,88.389 192.505,88.393 191.900 L 88.400 190.800 78.787 190.800 C 67.724 190.800,68.379 191.069,69.171 186.847 C 69.445 185.391,69.853 183.120,70.080 181.800 C 70.306 180.480,70.647 178.995,70.837 178.500 L 71.183 177.600 81.600 177.600 L 92.017 177.600 92.390 176.700 C 92.938 175.381,94.864 162.828,94.588 162.381 C 94.204 161.760,56.017 161.877,55.802 162.500 M125.857 162.307 C 125.698 162.565,124.847 167.198,122.790 179.000 C 121.993 183.575,119.940 195.158,119.565 197.200 C 119.342 198.410,118.982 200.480,118.764 201.800 C 118.100 205.826,116.823 213.089,115.583 219.900 C 115.372 221.055,115.030 222.945,114.823 224.100 C 114.616 225.255,114.169 227.730,113.830 229.600 C 113.492 231.470,113.211 233.495,113.207 234.100 L 113.200 235.200 121.786 235.200 C 131.388 235.200,130.877 235.361,131.311 232.200 C 131.688 229.451,133.916 216.745,134.573 213.600 C 134.917 211.950,135.199 210.195,135.200 209.700 C 135.200 208.222,135.799 208.670,136.803 210.900 C 139.275 216.390,140.201 218.424,141.493 221.200 C 142.261 222.850,143.240 225.010,143.667 226.000 C 144.094 226.990,144.749 228.506,145.122 229.369 C 145.495 230.233,146.250 231.853,146.800 232.969 L 147.800 235.000 157.100 235.107 C 167.896 235.232,167.155 235.700,164.666 230.337 C 163.712 228.282,161.418 223.270,159.569 219.200 C 157.720 215.130,155.726 210.810,155.138 209.600 C 153.998 207.256,154.245 206.400,156.058 206.400 C 159.744 206.400,167.566 200.221,169.983 195.400 C 177.429 180.547,169.580 164.438,153.906 162.402 C 150.428 161.950,126.129 161.868,125.857 162.307 M242.513 163.288 C 253.943 167.090,259.498 177.832,256.397 190.138 C 253.329 202.316,243.757 207.994,226.291 207.998 C 219.458 208.000,220.023 207.618,219.190 212.800 C 218.924 214.450,218.388 217.510,217.998 219.600 C 217.608 221.690,216.882 225.830,216.385 228.800 C 215.202 235.872,216.226 235.235,206.245 235.108 L 197.800 235.000 197.865 233.800 C 197.921 232.756,199.720 222.057,200.824 216.200 C 201.031 215.100,201.378 213.120,201.595 211.800 C 201.987 209.412,202.457 206.706,203.177 202.700 C 204.177 197.136,206.779 182.412,209.238 168.400 C 209.682 165.870,210.133 163.378,210.240 162.862 L 210.434 161.925 224.917 162.089 C 239.217 162.250,239.439 162.265,242.513 163.288 M295.416 162.306 C 295.644 162.468,296.348 163.770,296.979 165.200 C 297.610 166.630,298.618 168.880,299.220 170.200 C 299.821 171.520,300.804 173.680,301.405 175.000 C 302.006 176.320,302.834 178.177,303.246 179.126 C 304.239 181.416,302.818 182.913,316.036 165.644 L 318.673 162.200 328.936 162.093 C 337.631 162.003,339.200 162.074,339.200 162.560 C 339.200 162.875,339.050 163.193,338.867 163.267 C 338.684 163.340,336.768 165.560,334.611 168.200 C 332.453 170.840,330.095 173.720,329.371 174.600 C 328.646 175.480,326.221 178.450,323.983 181.200 C 321.744 183.950,318.800 187.550,317.440 189.200 C 316.080 190.850,314.166 193.190,313.186 194.400 C 312.206 195.610,311.190 196.826,310.928 197.102 C 310.257 197.812,310.214 197.996,308.394 208.000 C 306.857 216.452,306.150 220.408,304.418 230.253 C 304.026 232.482,303.581 234.507,303.429 234.753 C 303.239 235.060,300.464 235.200,294.576 235.200 C 284.880 235.200,285.562 235.476,286.382 231.877 C 286.592 230.955,287.392 226.600,288.159 222.200 C 288.926 217.800,290.201 210.587,290.993 206.172 L 292.432 198.143 290.671 194.372 C 289.702 192.297,288.541 189.790,288.090 188.800 C 286.914 186.216,284.385 180.802,282.297 176.400 C 281.306 174.310,279.640 170.710,278.595 168.400 C 277.550 166.090,276.538 164.029,276.347 163.820 C 276.156 163.611,276.000 163.116,276.000 162.720 C 276.000 161.963,294.376 161.571,295.416 162.306 M151.461 178.509 C 155.320 180.564,155.797 186.603,152.370 190.030 C 150.524 191.876,148.359 192.400,142.580 192.400 C 137.853 192.400,138.041 192.573,138.805 188.931 C 139.027 187.869,139.565 185.032,139.998 182.628 C 140.432 180.223,141.015 178.100,141.294 177.910 C 142.191 177.298,150.058 177.761,151.461 178.509 M225.491 177.859 C 225.209 178.323,223.063 189.949,223.028 191.200 C 222.995 192.391,229.095 192.871,233.125 191.994 C 239.610 190.583,241.509 182.519,236.271 178.637 C 235.072 177.748,225.957 177.091,225.491 177.859 M44.440 277.300 C 44.253 277.795,43.970 279.010,43.811 280.000 C 43.652 280.990,42.634 286.840,41.548 293.000 C 40.463 299.160,39.030 307.350,38.364 311.200 C 37.698 315.050,36.984 319.100,36.776 320.200 C 36.348 322.470,35.778 325.730,35.218 329.100 C 35.008 330.365,34.669 332.300,34.465 333.400 C 34.002 335.893,31.812 348.323,30.800 354.200 C 30.383 356.620,29.693 360.580,29.266 363.000 C 28.697 366.227,28.612 367.478,28.945 367.694 C 29.195 367.856,112.785 367.991,214.700 367.994 L 400.000 368.000 400.000 322.200 L 400.000 276.400 222.390 276.400 L 44.780 276.400 44.440 277.300 M97.952 285.700 C 98.135 286.195,98.399 287.590,98.539 288.800 C 98.680 290.010,99.341 295.140,100.008 300.200 C 100.675 305.260,101.570 312.100,101.998 315.400 C 102.425 318.700,102.953 322.660,103.171 324.200 C 103.909 329.425,105.144 338.573,106.167 346.400 C 106.728 350.690,107.304 355.055,107.447 356.100 L 107.709 358.000 99.044 358.000 C 88.923 358.000,90.003 358.646,89.209 352.113 C 88.562 346.779,89.588 347.169,76.551 347.294 L 65.400 347.400 62.751 352.600 L 60.102 357.800 51.579 357.908 C 46.892 357.968,42.930 357.878,42.775 357.708 C 42.620 357.539,44.048 354.243,45.947 350.385 C 47.846 346.526,50.557 340.946,51.972 337.985 C 53.387 335.023,56.421 328.730,58.714 324.000 C 61.008 319.270,63.657 313.780,64.601 311.800 C 65.545 309.820,68.153 304.420,70.397 299.800 C 72.641 295.180,75.123 290.050,75.914 288.400 C 77.777 284.515,76.781 284.813,87.910 284.806 C 97.617 284.800,97.620 284.800,97.952 285.700 M167.837 285.352 C 167.953 285.655,167.691 287.860,167.253 290.252 C 166.816 292.643,166.236 295.905,165.965 297.500 L 165.472 300.400 158.350 300.400 C 150.342 300.400,150.737 300.245,150.210 303.600 C 149.717 306.744,146.042 327.717,145.620 329.800 C 145.397 330.900,144.673 334.950,144.011 338.800 C 141.724 352.105,140.768 357.327,140.561 357.663 C 140.180 358.279,123.605 358.079,123.366 357.456 C 123.251 357.157,123.789 353.332,124.560 348.956 C 125.332 344.580,126.422 338.390,126.983 335.200 C 129.396 321.478,131.320 310.670,132.151 306.164 C 133.317 299.842,133.935 300.400,125.767 300.400 L 118.800 300.400 118.805 299.300 C 118.808 298.695,119.171 296.220,119.611 293.800 C 120.051 291.380,120.523 288.590,120.661 287.600 C 120.798 286.610,121.088 285.575,121.304 285.300 C 121.915 284.524,167.539 284.575,167.837 285.352 M227.995 285.700 C 227.992 286.195,227.633 288.580,227.197 291.000 C 226.762 293.420,226.205 296.525,225.961 297.900 L 225.518 300.400 218.383 300.400 C 214.172 300.400,211.148 300.560,211.006 300.791 C 210.873 301.005,209.970 305.730,209.000 311.291 C 208.029 316.851,207.059 322.300,206.845 323.400 C 206.630 324.500,206.070 327.650,205.600 330.400 C 205.130 333.150,204.410 337.200,204.000 339.400 C 203.590 341.600,202.768 346.280,202.172 349.800 C 200.604 359.066,201.922 358.000,192.034 358.000 C 187.168 358.000,183.549 357.840,183.412 357.620 C 183.283 357.411,183.558 355.116,184.024 352.520 C 184.861 347.853,186.144 340.577,188.159 329.079 C 188.729 325.823,190.034 318.443,191.057 312.679 C 192.080 306.916,192.936 301.840,192.959 301.400 C 192.998 300.632,192.713 300.596,185.900 300.491 C 180.617 300.409,178.800 300.256,178.801 299.891 C 178.802 298.888,181.146 285.611,181.392 285.213 C 181.563 284.937,189.305 284.800,204.824 284.800 L 228.000 284.800 227.995 285.700 M82.982 310.455 C 82.833 310.926,80.581 315.639,77.977 320.929 C 75.374 326.219,73.335 330.694,73.446 330.874 C 73.556 331.053,76.517 331.200,80.024 331.200 C 86.326 331.200,86.637 331.138,86.451 329.910 C 86.230 328.459,84.716 314.752,84.527 312.500 C 84.281 309.561,83.566 308.615,82.982 310.455 " stroke="none" fill="#3b3b3b" fill-rule="evenodd"></path><path id="path1" d="M0.000 200.000 L 0.000 400.000 200.000 400.000 L 400.000 400.000 400.000 384.000 L 400.000 368.000 214.700 367.994 C 112.785 367.991,29.195 367.856,28.945 367.694 C 28.612 367.478,28.697 366.227,29.266 363.000 C 29.693 360.580,30.383 356.620,30.800 354.200 C 31.812 348.323,34.002 335.893,34.465 333.400 C 34.669 332.300,35.008 330.365,35.218 329.100 C 35.802 325.585,36.359 322.409,36.781 320.200 C 36.991 319.100,37.516 316.130,37.948 313.600 C 40.329 299.664,43.684 280.712,44.110 278.800 L 44.600 276.600 222.300 276.500 L 400.000 276.399 400.000 259.800 L 400.000 243.201 290.300 243.101 L 180.600 243.000 180.635 241.400 C 180.667 239.922,181.001 237.737,181.981 232.600 C 182.191 231.500,182.739 228.440,183.199 225.800 C 183.659 223.160,184.199 220.100,184.400 219.000 C 184.601 217.900,185.141 214.840,185.600 212.200 C 186.059 209.560,186.597 206.500,186.795 205.400 C 187.412 201.967,188.399 196.387,189.235 191.600 C 189.677 189.070,190.839 182.500,191.818 177.000 C 192.796 171.500,193.966 164.840,194.418 162.200 C 194.869 159.560,195.433 156.635,195.671 155.700 L 196.104 154.000 298.052 154.000 L 400.000 154.000 400.000 77.000 L 400.000 0.000 200.000 0.000 L 0.000 0.000 0.000 200.000 M87.000 40.176 C 109.196 46.593,107.113 79.193,84.200 83.994 C 82.880 84.271,81.170 84.654,80.400 84.846 C 79.630 85.038,75.996 85.197,72.324 85.198 C 68.426 85.199,65.547 85.362,65.406 85.590 C 65.274 85.804,64.822 88.009,64.403 90.490 C 63.233 97.410,61.674 106.292,61.084 109.400 L 60.553 112.200 51.776 112.200 C 43.252 112.200,43.001 112.177,43.043 111.400 C 43.092 110.476,43.872 105.435,44.372 102.800 C 44.828 100.399,46.917 88.630,48.382 80.200 C 49.032 76.460,49.940 71.330,50.400 68.800 C 50.860 66.270,51.399 63.210,51.598 62.000 C 51.996 59.581,52.446 57.058,53.344 52.200 C 53.669 50.440,54.332 46.780,54.816 44.066 L 55.697 39.132 70.149 39.307 C 82.309 39.455,84.981 39.592,87.000 40.176 M164.983 39.572 C 165.212 39.942,165.335 40.805,166.795 52.200 C 167.218 55.500,167.756 59.460,167.991 61.000 C 168.227 62.540,168.595 65.240,168.810 67.000 C 169.260 70.692,169.754 74.456,170.383 79.000 C 170.626 80.760,171.000 83.505,171.213 85.100 C 171.426 86.695,171.787 89.395,172.016 91.100 C 172.245 92.805,172.597 95.550,172.798 97.200 C 173.000 98.850,173.533 102.879,173.982 106.154 C 174.432 109.429,174.800 112.174,174.800 112.254 C 174.800 112.883,157.234 112.335,157.040 111.700 C 156.922 111.315,156.623 109.301,156.374 107.224 C 156.126 105.147,155.764 103.032,155.571 102.524 L 155.220 101.600 144.210 101.600 C 131.267 101.600,132.769 100.976,129.464 107.722 L 127.172 112.400 118.386 112.400 C 113.554 112.400,109.600 112.282,109.600 112.139 C 109.600 111.807,110.757 109.353,115.606 99.400 C 120.886 88.561,124.506 81.064,127.001 75.800 C 128.148 73.380,130.571 68.340,132.386 64.600 C 134.201 60.860,136.685 55.730,137.907 53.200 C 141.087 46.615,143.774 41.143,144.340 40.100 C 144.864 39.134,164.403 38.634,164.983 39.572 M239.400 40.138 C 249.607 43.027,254.821 49.824,254.942 60.400 C 255.079 72.240,248.978 80.843,238.500 83.586 C 236.581 84.088,236.467 84.470,237.583 86.662 C 238.014 87.508,240.283 92.430,242.625 97.600 C 244.968 102.770,247.406 108.077,248.042 109.394 C 248.679 110.711,249.200 111.929,249.200 112.101 C 249.200 112.748,230.318 112.256,229.953 111.600 C 229.770 111.270,229.269 110.190,228.841 109.200 C 228.413 108.210,226.878 104.820,225.431 101.667 C 223.984 98.514,222.800 95.877,222.800 95.807 C 222.800 95.622,219.649 88.728,219.189 87.905 C 218.975 87.523,218.800 86.923,218.800 86.572 C 218.800 84.119,217.667 87.041,216.916 91.431 C 216.429 94.274,215.852 97.590,215.634 98.800 C 215.415 100.010,214.883 103.070,214.452 105.600 C 214.021 108.130,213.543 110.695,213.391 111.300 L 213.113 112.400 204.357 112.400 C 197.617 112.400,195.600 112.285,195.601 111.900 C 195.602 111.328,196.765 104.358,197.987 97.600 C 198.738 93.449,199.465 89.346,202.031 74.800 C 202.477 72.270,203.005 69.210,203.203 68.000 C 203.401 66.790,203.942 63.730,204.404 61.200 C 204.866 58.670,205.584 54.620,205.999 52.200 C 206.824 47.388,207.898 41.535,208.224 40.069 L 208.431 39.138 222.715 39.298 C 234.599 39.432,237.403 39.573,239.400 40.138 M298.286 41.300 C 298.170 42.455,297.705 45.470,297.255 48.000 C 296.804 50.530,295.962 55.269,295.383 58.532 C 294.804 61.794,294.448 64.581,294.592 64.725 C 294.736 64.869,300.614 59.185,307.656 52.093 L 320.458 39.200 330.029 39.200 C 335.293 39.200,339.600 39.298,339.600 39.418 C 339.600 39.537,332.156 47.127,323.058 56.284 L 306.515 72.932 308.019 75.585 C 308.846 77.044,310.102 79.310,310.810 80.619 C 314.266 87.010,314.938 88.230,315.209 88.600 C 315.370 88.820,316.217 90.350,317.091 92.000 C 317.966 93.650,319.133 95.810,319.685 96.800 C 320.237 97.790,321.232 99.590,321.895 100.800 C 326.229 108.705,327.322 110.642,327.641 110.980 C 328.895 112.308,328.135 112.416,318.328 112.307 L 308.655 112.200 307.602 110.400 C 307.023 109.410,305.825 107.250,304.939 105.600 C 304.053 103.950,302.971 101.970,302.532 101.200 C 302.094 100.430,301.002 98.450,300.105 96.800 C 299.207 95.150,297.827 92.630,297.037 91.200 C 296.247 89.770,294.750 87.029,293.711 85.110 C 291.417 80.873,291.509 80.792,290.219 88.200 C 289.645 91.500,288.987 95.280,288.757 96.600 C 288.527 97.920,288.189 99.810,288.005 100.800 C 287.821 101.790,287.488 103.590,287.264 104.800 C 287.040 106.010,286.631 108.218,286.354 109.707 L 285.850 112.415 277.025 112.307 C 268.461 112.203,268.203 112.176,268.309 111.400 C 268.455 110.318,269.068 106.706,269.580 103.900 C 270.609 98.267,270.812 97.131,271.604 92.600 C 272.065 89.960,272.612 86.675,272.820 85.299 C 273.027 83.924,273.365 82.034,273.570 81.099 C 273.775 80.165,274.687 75.080,275.598 69.800 C 276.509 64.520,277.704 57.770,278.253 54.800 C 278.802 51.830,279.411 48.410,279.606 47.200 C 280.434 42.070,280.853 39.839,281.044 39.529 C 281.156 39.348,285.129 39.200,289.873 39.200 L 298.499 39.200 298.286 41.300 M70.924 55.300 C 70.557 55.791,70.125 57.829,69.207 63.400 C 68.953 64.940,68.566 66.784,68.348 67.498 C 67.745 69.463,68.045 69.600,72.952 69.600 C 81.142 69.600,84.400 67.318,84.400 61.582 C 84.400 56.726,81.803 54.800,75.253 54.800 C 72.555 54.800,71.179 54.959,70.924 55.300 M223.264 55.819 C 223.009 56.379,222.800 57.289,222.800 57.842 C 222.800 58.394,222.630 59.600,222.423 60.523 C 221.494 64.650,220.810 68.893,221.019 69.231 C 221.354 69.773,229.837 69.681,231.726 69.115 C 237.975 67.243,239.126 58.144,233.440 55.562 C 230.647 54.294,223.881 54.465,223.264 55.819 M150.019 64.951 C 149.607 66.033,146.083 73.384,142.546 80.539 C 139.900 85.893,139.659 85.601,146.724 85.594 C 154.497 85.586,153.802 86.885,152.398 75.000 C 152.138 72.800,151.807 69.484,151.663 67.632 C 151.389 64.118,150.738 63.058,150.019 64.951 M94.588 162.381 C 94.864 162.828,92.938 175.381,92.390 176.700 L 92.017 177.600 81.600 177.600 L 71.183 177.600 70.837 178.500 C 70.647 178.995,70.306 180.480,70.080 181.800 C 69.853 183.120,69.445 185.391,69.171 186.847 C 68.379 191.069,67.724 190.800,78.787 190.800 L 88.400 190.800 88.393 191.900 C 88.389 192.505,88.108 194.530,87.770 196.400 C 87.431 198.270,86.995 200.700,86.801 201.800 C 86.606 202.900,86.325 204.382,86.175 205.093 L 85.903 206.386 75.880 206.493 L 65.857 206.600 65.535 207.800 C 64.869 210.280,63.573 218.553,63.770 219.066 C 63.934 219.492,66.070 219.600,74.380 219.600 L 84.785 219.600 84.556 221.500 C 84.430 222.545,84.181 223.940,84.003 224.600 C 83.824 225.260,83.471 227.240,83.217 229.000 C 82.964 230.760,82.579 232.875,82.362 233.700 L 81.968 235.200 62.584 235.200 C 43.020 235.200,42.944 235.195,43.155 233.892 C 43.183 233.723,43.391 232.373,43.619 230.892 C 43.846 229.412,44.188 227.390,44.378 226.400 C 44.568 225.410,45.091 222.530,45.540 220.000 C 45.989 217.470,46.636 213.825,46.978 211.900 C 47.892 206.755,48.691 202.225,50.028 194.600 C 54.181 170.908,55.576 163.154,55.802 162.500 C 56.017 161.877,94.204 161.760,94.588 162.381 M153.906 162.402 C 169.580 164.438,177.429 180.547,169.983 195.400 C 167.566 200.221,159.744 206.400,156.058 206.400 C 154.245 206.400,153.998 207.256,155.138 209.600 C 155.726 210.810,157.720 215.130,159.569 219.200 C 161.418 223.270,163.712 228.282,164.666 230.337 C 167.155 235.700,167.896 235.232,157.100 235.107 L 147.800 235.000 146.800 232.969 C 146.250 231.853,145.495 230.233,145.122 229.369 C 144.749 228.506,144.094 226.990,143.667 226.000 C 143.240 225.010,142.261 222.850,141.493 221.200 C 140.201 218.424,139.275 216.390,136.803 210.900 C 135.799 208.670,135.200 208.222,135.200 209.700 C 135.199 210.195,134.917 211.950,134.573 213.600 C 133.916 216.745,131.688 229.451,131.311 232.200 C 130.877 235.361,131.388 235.200,121.786 235.200 L 113.200 235.200 113.207 234.100 C 113.211 233.495,113.492 231.470,113.830 229.600 C 114.169 227.730,114.616 225.255,114.823 224.100 C 115.030 222.945,115.372 221.055,115.583 219.900 C 116.823 213.089,118.100 205.826,118.764 201.800 C 118.982 200.480,119.342 198.410,119.565 197.200 C 119.940 195.158,121.993 183.575,122.790 179.000 C 124.847 167.198,125.698 162.565,125.857 162.307 C 126.129 161.868,150.428 161.950,153.906 162.402 M210.240 162.862 C 210.133 163.378,209.682 165.870,209.238 168.400 C 206.779 182.412,204.177 197.136,203.177 202.700 C 202.457 206.706,201.987 209.412,201.595 211.800 C 201.378 213.120,201.031 215.100,200.824 216.200 C 199.720 222.057,197.921 232.756,197.865 233.800 L 197.800 235.000 206.245 235.108 C 216.226 235.235,215.202 235.872,216.385 228.800 C 216.882 225.830,217.608 221.690,217.998 219.600 C 218.388 217.510,218.924 214.450,219.190 212.800 C 220.023 207.618,219.458 208.000,226.291 207.998 C 234.519 207.996,239.567 207.090,244.800 204.674 C 259.652 197.818,261.688 174.788,248.218 166.012 C 242.852 162.516,241.425 162.275,224.917 162.089 L 210.434 161.925 210.240 162.862 M276.000 162.720 C 276.000 163.116,276.156 163.611,276.347 163.820 C 276.538 164.029,277.550 166.090,278.595 168.400 C 279.640 170.710,281.306 174.310,282.297 176.400 C 284.385 180.802,286.914 186.216,288.090 188.800 C 288.541 189.790,289.702 192.297,290.671 194.372 L 292.432 198.143 290.993 206.172 C 290.201 210.587,288.926 217.800,288.159 222.200 C 287.392 226.600,286.592 230.955,286.382 231.877 C 285.562 235.476,284.880 235.200,294.576 235.200 C 300.464 235.200,303.239 235.060,303.429 234.753 C 303.581 234.507,304.026 232.482,304.418 230.253 C 309.644 200.543,310.160 197.913,310.928 197.102 C 311.190 196.826,312.206 195.610,313.186 194.400 C 314.166 193.190,316.080 190.850,317.440 189.200 C 318.800 187.550,321.744 183.950,323.983 181.200 C 326.221 178.450,328.646 175.480,329.371 174.600 C 330.095 173.720,332.453 170.840,334.611 168.200 C 336.768 165.560,338.684 163.340,338.867 163.267 C 339.050 163.193,339.200 162.875,339.200 162.560 C 339.200 162.074,337.631 162.003,328.936 162.093 L 318.673 162.200 316.036 165.644 C 302.818 182.913,304.239 181.416,303.246 179.126 C 302.834 178.177,302.006 176.320,301.405 175.000 C 300.804 173.680,299.821 171.520,299.220 170.200 C 298.618 168.880,297.610 166.630,296.979 165.200 C 295.470 161.780,296.306 162.013,285.500 162.006 C 276.616 162.000,276.000 162.047,276.000 162.720 M141.294 177.910 C 141.015 178.100,140.432 180.223,139.998 182.628 C 139.565 185.032,139.027 187.869,138.805 188.931 C 138.041 192.573,137.853 192.400,142.580 192.400 C 148.359 192.400,150.524 191.876,152.370 190.030 C 155.797 186.603,155.320 180.564,151.461 178.509 C 150.058 177.761,142.191 177.298,141.294 177.910 M236.271 178.637 C 241.509 182.519,239.610 190.583,233.125 191.994 C 229.095 192.871,222.995 192.391,223.028 191.200 C 223.063 189.949,225.209 178.323,225.491 177.859 C 225.957 177.091,235.072 177.748,236.271 178.637 M77.776 285.106 C 77.543 285.268,76.705 286.750,75.914 288.400 C 75.123 290.050,72.641 295.180,70.397 299.800 C 68.153 304.420,65.545 309.820,64.601 311.800 C 63.657 313.780,61.008 319.270,58.714 324.000 C 56.421 328.730,53.387 335.023,51.972 337.985 C 50.557 340.946,47.846 346.526,45.947 350.385 C 44.048 354.243,42.620 357.539,42.775 357.708 C 42.930 357.878,46.892 357.968,51.579 357.908 L 60.102 357.800 62.751 352.600 L 65.400 347.400 76.551 347.294 C 89.588 347.169,88.562 346.779,89.209 352.113 C 90.003 358.646,88.923 358.000,99.044 358.000 L 107.709 358.000 107.447 356.100 C 107.304 355.055,106.728 350.690,106.167 346.400 C 105.144 338.573,103.909 329.425,103.171 324.200 C 102.953 322.660,102.425 318.700,101.998 315.400 C 101.570 312.100,100.675 305.260,100.008 300.200 C 99.341 295.140,98.680 290.010,98.539 288.800 C 98.032 284.429,99.017 284.799,87.910 284.806 C 82.569 284.809,78.009 284.944,77.776 285.106 M121.304 285.300 C 121.088 285.575,120.798 286.610,120.661 287.600 C 120.523 288.590,120.051 291.380,119.611 293.800 C 119.171 296.220,118.808 298.695,118.805 299.300 L 118.800 300.400 125.767 300.400 C 133.935 300.400,133.317 299.842,132.151 306.164 C 131.320 310.670,129.396 321.478,126.983 335.200 C 126.422 338.390,125.332 344.580,124.560 348.956 C 123.789 353.332,123.251 357.157,123.366 357.456 C 123.605 358.079,140.180 358.279,140.561 357.663 C 140.768 357.327,141.724 352.105,144.011 338.800 C 144.673 334.950,145.397 330.900,145.620 329.800 C 146.042 327.717,149.717 306.744,150.210 303.600 C 150.737 300.245,150.342 300.400,158.350 300.400 L 165.472 300.400 165.965 297.500 C 166.236 295.905,166.816 292.643,167.253 290.252 C 167.691 287.860,167.953 285.655,167.837 285.352 C 167.539 284.575,121.915 284.524,121.304 285.300 M181.392 285.213 C 181.146 285.611,178.802 298.888,178.801 299.891 C 178.800 300.256,180.617 300.409,185.900 300.491 C 192.713 300.596,192.998 300.632,192.959 301.400 C 192.936 301.840,192.080 306.916,191.057 312.679 C 190.034 318.443,188.729 325.823,188.159 329.079 C 186.144 340.577,184.861 347.853,184.024 352.520 C 183.558 355.116,183.283 357.411,183.412 357.620 C 183.549 357.840,187.168 358.000,192.034 358.000 C 201.922 358.000,200.604 359.066,202.172 349.800 C 202.768 346.280,203.590 341.600,204.000 339.400 C 204.410 337.200,205.130 333.150,205.600 330.400 C 206.070 327.650,206.630 324.500,206.845 323.400 C 207.059 322.300,208.029 316.851,209.000 311.291 C 209.970 305.730,210.873 301.005,211.006 300.791 C 211.148 300.560,214.172 300.400,218.383 300.400 L 225.518 300.400 225.961 297.900 C 226.205 296.525,226.762 293.420,227.197 291.000 C 227.633 288.580,227.992 286.195,227.995 285.700 L 228.000 284.800 204.824 284.800 C 189.305 284.800,181.563 284.937,181.392 285.213 M84.527 312.500 C 84.716 314.752,86.230 328.459,86.451 329.910 C 86.637 331.138,86.326 331.200,80.024 331.200 C 76.517 331.200,73.556 331.053,73.446 330.874 C 73.335 330.694,75.374 326.219,77.977 320.929 C 80.581 315.639,82.833 310.926,82.982 310.455 C 83.566 308.615,84.281 309.561,84.527 312.500 " stroke="none" fill="#f3f3f3" fill-rule="evenodd"></path></g></svg>