<?xml version="1.0" standalone="no"?>
<!DOCTYPE svg PUBLIC "-//W3C//DTD SVG 20010904//EN"
 "http://www.w3.org/TR/2001/REC-SVG-20010904/DTD/svg10.dtd">
<svg version="1.0" xmlns="http://www.w3.org/2000/svg"
 width="232.000000pt" height="232.000000pt" viewBox="0 0 232.000000 232.000000"
 preserveAspectRatio="xMidYMid meet">
<metadata>
Created by potrace 1.14, written by Peter Selinger 2001-2017
</metadata>
<g transform="translate(0.000000,232.000000) scale(0.100000,-0.100000)"
fill="#000000" stroke="none">
<path d="M1336 1838 c-3 -7 -11 -58 -20 -113 -9 -55 -23 -138 -31 -185 -9 -47
-31 -177 -51 -290 -19 -113 -44 -257 -55 -320 -11 -63 -29 -167 -40 -230 -10
-63 -21 -127 -25 -143 l-6 -27 606 0 606 0 0 660 0 660 -490 0 c-384 0 -491
-3 -494 -12z m698 -134 c108 -43 174 -135 183 -257 7 -93 -10 -175 -50 -234
-70 -104 -173 -149 -367 -161 l-115 -7 -12 -70 c-29 -172 -54 -309 -59 -317
-3 -4 -59 -8 -125 -8 -96 0 -119 3 -119 14 0 14 17 114 79 479 17 97 45 257
61 355 17 97 33 190 36 205 l6 29 216 -4 c185 -4 224 -7 266 -24z"/>
<path d="M1752 1443 c-6 -32 -14 -82 -18 -110 l-7 -53 72 0 c115 0 164 36 165
121 1 44 -3 54 -27 75 -24 21 -38 24 -101 24 l-73 0 -11 -57z"/>
<path d="M325 1718 c-2 -7 -20 -107 -40 -223 -20 -115 -49 -289 -66 -385 -16
-96 -39 -227 -49 -290 -11 -63 -22 -128 -25 -143 l-5 -28 132 3 132 3 13 80
c7 44 19 116 27 160 8 44 17 97 21 118 l6 37 102 0 c217 0 358 79 413 232 23
65 21 204 -4 261 -28 64 -93 131 -155 158 -49 23 -66 24 -275 27 -177 3 -223
1 -227 -10z m390 -248 c20 -19 25 -33 25 -73 0 -42 -4 -53 -31 -78 -29 -27
-36 -29 -116 -29 -83 0 -85 0 -80 23 3 12 11 54 18 92 17 105 10 98 89 93 56
-3 74 -8 95 -28z"/>
</g>
</svg>
